Coordinates
version=1
nRows=35
nColumns=34
inDegrees=no

Units are S.I. units (second, meters, Newtons, ...)
If the header above contains a line with 'inDegrees', this indicates whether rotational values are in degrees (yes) or radians (no).

endheader
time	pelvis_tilt	pelvis_list	pelvis_rotation	pelvis_tx	pelvis_ty	pelvis_tz	hip_flexion_r	hip_adduction_r	hip_rotation_r	knee_angle_r	ankle_angle_r	subtalar_angle_r	mtp_angle_r	hip_flexion_l	hip_adduction_l	hip_rotation_l	knee_angle_l	ankle_angle_l	subtalar_angle_l	mtp_angle_l	lumbar_extension	lumbar_bending	lumbar_rotation	arm_flex_r	arm_add_r	arm_rot_r	elbow_flex_r	pro_sup_r	arm_flex_l	arm_add_l	arm_rot_l	elbow_flex_l	pro_sup_l
1.87	-0.45873	-0.0605253	-0.0363984	-0.262166	0.677365	-0.615627	1.47668	-0.106048	0.010292	1.58664	0.465812	-0.10407	-0.104867	1.53354	-0.0813984	0.184844	1.60088	0.403418	-0.250483	-0.104868	-0.677334	0.0325423	0.0165294	1.10879	-0.312258	0.29841	1.25999	1.41913	1.3341	-0.353527	0.460292	1.30994	1.30171
1.88	-0.450662	-0.0600059	-0.0369311	-0.259872	0.683462	-0.615603	1.44972	-0.10116	0.0101147	1.56466	0.463848	-0.112961	-0.104858	1.50877	-0.0817837	0.18314	1.58263	0.394083	-0.255881	-0.104859	-0.663175	0.0337686	0.0143663	1.14163	-0.325894	0.301043	1.33857	1.40237	1.3842	-0.366772	0.477832	1.3712	1.29634
1.89	-0.442276	-0.058797	-0.0370107	-0.257457	0.690054	-0.615599	1.42183	-0.0968975	0.0105003	1.54131	0.459864	-0.122542	-0.10485	1.48252	-0.0819286	0.180194	1.56248	0.382575	-0.261724	-0.10485	-0.648173	0.034512	0.0114688	1.18037	-0.344332	0.306096	1.42085	1.38311	1.44071	-0.382717	0.496746	1.43231	1.28887
1.9	-0.433797	-0.0570813	-0.0370138	-0.254916	0.69719	-0.615587	1.3931	-0.0929097	0.0113497	1.51635	0.45368	-0.132824	-0.104841	1.45512	-0.0821281	0.176297	1.54047	0.368423	-0.268287	-0.104842	-0.632295	0.0347277	0.00805843	1.22662	-0.366789	0.313727	1.50359	1.36298	1.50405	-0.401009	0.517127	1.49119	1.28029
1.91	-0.42544	-0.0550532	-0.0373042	-0.252229	0.704914	-0.615547	1.36352	-0.0888976	0.0125222	1.48949	0.44529	-0.143766	-0.104832	1.42685	-0.0827199	0.171744	1.51662	0.351321	-0.275766	-0.104833	-0.61548	0.0344397	0.00435492	1.28143	-0.392101	0.323878	1.58366	1.34384	1.5741	-0.421253	0.539004	1.54607	1.27194
1.92	-0.417398	-0.0529039	-0.0381854	-0.249362	0.713273	-0.615455	1.33297	-0.0846675	0.0138423	1.4603	0.43477	-0.155224	-0.104824	1.39786	-0.0840485	0.16679	1.49091	0.33116	-0.284243	-0.104824	-0.597621	0.0337345	0.000580448	1.34515	-0.418862	0.336383	1.65835	1.32719	1.65014	-0.442983	0.562385	1.59565	1.26487
1.93	-0.409839	-0.050809	-0.0398684	-0.246264	0.722335	-0.615292	1.30123	-0.0801561	0.0151093	1.4282	0.422163	-0.166906	-0.104815	1.36817	-0.0864265	0.161624	1.46313	0.307991	-0.293663	-0.104815	-0.578557	0.0327422	-0.00304547	1.41729	-0.445567	0.351055	1.72552	1.31394	1.73089	-0.465641	0.587265	1.63909	1.25962
1.94	-0.402907	-0.0489143	-0.0424606	-0.242877	0.732197	-0.615038	1.26793	-0.0754198	0.0161046	1.39239	0.407333	-0.178325	-0.104806	1.3376	-0.0901069	0.156336	1.43286	0.28196	-0.303797	-0.104807	-0.55805	0.0316081	-0.00632136	1.49648	-0.470754	0.367743	1.78374	1.30438	1.81448	-0.488579	0.613586	1.67603	1.25616
1.95	-0.396712	-0.0473196	-0.0459713	-0.239136	0.742969	-0.61468	1.23258	-0.0705923	0.0165924	1.35173	0.389834	-0.188776	-0.104798	1.30578	-0.095275	0.150878	1.39942	0.253181	-0.314187	-0.104798	-0.535805	0.0304636	-0.00907751	1.58049	-0.493124	0.386339	1.83226	1.29837	1.89858	-0.511082	0.6412	1.70649	1.25411
1.96	-0.391315	-0.0460739	-0.0503363	-0.234974	0.75478	-0.614203	1.19449	-0.0658263	0.016308	1.30474	0.368776	-0.19733	-0.104789	1.27212	-0.102052	0.145016	1.36179	0.221613	-0.324079	-0.10479	-0.511521	0.0294024	-0.0111851	1.66637	-0.511645	0.406767	1.87099	1.29563	1.98048	-0.532438	0.669869	1.73084	1.25288
1.97	-0.386678	-0.045179	-0.0554511	-0.230324	0.76777	-0.613593	1.15284	-0.0612372	0.014934	1.24965	0.342762	-0.202832	-0.10478	1.23581	-0.110497	0.13828	1.31866	0.186925	-0.332375	-0.104781	-0.48499	0.0284704	-0.0125628	1.75072	-0.525614	0.428976	1.90035	1.29589	2.0574	-0.552039	0.699309	1.74969	1.25176
1.98	-0.382606	-0.0446068	-0.0612046	-0.225157	0.782077	-0.612845	1.10664	-0.0568561	0.0120664	1.18454	0.309888	-0.203948	-0.104772	1.19583	-0.120607	0.129929	1.2685	0.148404	-0.337635	-0.104772	-0.456206	0.0276688	-0.0131751	1.83004	-0.534676	0.452929	1.92118	1.2988	2.12671	-0.569488	0.729259	1.76382	1.24992
1.99	-0.378718	-0.0443318	-0.0675057	-0.219485	0.797811	-0.611957	1.05486	-0.0525999	0.00717375	1.1076	0.267874	-0.199247	-0.104763	1.15098	-0.132301	0.118945	1.20963	0.104945	-0.338139	-0.104764	-0.425464	0.0269733	-0.013012	1.90106	-0.538836	0.478593	1.93456	1.30384	2.1862	-0.584652	0.759528	1.77408	1.24658
2	-0.374447	-0.0443653	-0.0742959	-0.213344	0.81509	-0.610923	0.996615	-0.0482654	-0.000443243	1.01755	0.214336	-0.187351	-0.104754	1.10002	-0.145414	0.104078	1.14043	0.0551783	-0.332008	-0.104755	-0.393406	0.0263667	-0.0120523	1.96113	-0.538464	0.505905	1.94169	1.31034	2.23432	-0.597652	0.789991	1.78129	1.24123
2.01	-0.369108	-0.044782	-0.0815404	-0.206791	0.833986	-0.609742	0.93134	-0.0435597	-0.0116643	0.91405	0.147231	-0.167165	-0.104746	1.0419	-0.159674	0.0839463	1.05964	-0.00225603	-0.317418	-0.104746	-0.360994	0.0258682	-0.0102364	2.0084	-0.534278	0.534738	1.94378	1.31749	2.27029	-0.608784	0.820551	1.78614	1.23382
2.02	-0.362005	-0.045713	-0.0892041	-0.199914	0.854474	-0.608415	0.859096	-0.0381755	-0.0274947	0.798185	0.0654158	-0.138145	-0.104737	0.975934	-0.174684	0.0571916	0.966605	-0.0683157	-0.292891	-0.104738	-0.3294	0.0255451	-0.00747915	2.04198	-0.527289	0.564878	1.94197	1.32447	2.29416	-0.618428	0.851069	1.78917	1.22481
2.03	-0.352561	-0.0472982	-0.0972205	-0.192842	0.876436	-0.606953	0.780773	-0.0318999	-0.0489113	0.672834	-0.0307238	-0.100546	-0.104729	0.902124	-0.1899	0.0226702	0.861692	-0.143104	-0.257652	-0.104729	-0.299838	0.0254908	-0.00372544	2.06193	-0.518681	0.596017	1.93725	1.33056	2.30666	-0.626993	0.881308	1.79083	1.21502
2.04	-0.340449	-0.0496075	-0.105466	-0.185752	0.899661	-0.605389	0.698217	-0.024727	-0.0766096	0.54278	-0.138772	-0.0556044	-0.10472	0.82133	-0.204633	-0.0203091	0.746535	-0.225459	-0.211987	-0.104721	-0.273366	0.0257741	0.000975434	2.06912	-0.509653	0.62776	1.93049	1.33535	2.3091	-0.634902	0.910903	1.79158	1.20529
2.05	-0.325701	-0.0525619	-0.113742	-0.178848	0.923822	-0.603773	0.614169	-0.016939	-0.110686	0.414452	-0.254092	-0.00555305	-0.104712	0.735417	-0.218082	-0.0717201	0.624261	-0.3127	-0.157526	-0.104712	-0.250702	0.026383	0.00641315	2.06503	-0.50129	0.659628	1.92245	1.33875	2.30315	-0.642587	0.939355	1.79201	1.19629
2.06	-0.308682	-0.055888	-0.121765	-0.172265	0.948437	-0.602154	0.532006	-0.00911075	-0.150304	0.295169	-0.370195	0.0465359	-0.104703	0.647259	-0.229423	-0.130566	0.499491	-0.400671	-0.097339	-0.104703	-0.232045	0.0271906	0.0122019	2.0515	-0.494475	0.691048	1.9138	1.34101	2.29055	-0.650478	0.966025	1.79283	1.1885
2.07	-0.290193	-0.0592313	-0.129197	-0.166111	0.972989	-0.600577	0.455217	-0.00203098	-0.19342	0.191936	-0.479796	0.0970999	-0.104695	0.560541	-0.23791	-0.194707	0.378087	-0.484241	-0.0357599	-0.104695	-0.217054	0.0279279	0.0178012	2.03041	-0.489868	0.721347	1.90526	1.34258	2.27289	-0.658975	0.990146	1.79488	1.18229
2.08	-0.271421	-0.0620974	-0.135631	-0.160468	0.996889	-0.599088	0.386769	0.00354417	-0.236724	0.109985	-0.576422	0.14256	-0.104686	0.479337	-0.243079	-0.260842	0.266546	-0.558275	0.0221159	-0.104686	-0.204956	0.0283239	0.0226123	2.00345	-0.487922	0.749774	1.8976	1.34406	2.25137	-0.668395	1.01084	1.79907	1.17801
2.09	-0.253643	-0.0640789	-0.140655	-0.155446	1.01977	-0.597737	0.328549	0.0071294	-0.276002	0.0515686	-0.655942	0.17985	-0.104677	0.407529	-0.24489	-0.324794	0.17108	-0.618863	0.0712573	-0.104678	-0.194709	0.0281991	0.0261039	1.97199	-0.488923	0.775538	1.89156	1.3461	2.22668	-0.678915	1.02714	1.80614	1.17623
2.1	-0.237927	-0.0650081	-0.143945	-0.151117	1.04154	-0.596585	0.281165	0.00869555	-0.30704	0.01575	-0.717172	0.206931	-0.104669	0.348094	-0.243836	-0.382177	0.0965404	-0.66426	0.107734	-0.104669	-0.185363	0.0275879	0.0279735	1.93695	-0.493022	0.797867	1.88784	1.34933	2.19901	-0.690522	1.03808	1.81652	1.17763
2.11	-0.224736	-0.0650823	-0.145375	-0.14751	1.06226	-0.595677	0.243949	0.00870413	-0.327019	-0.000900453	-0.761355	0.223427	-0.10466	0.3023	-0.240937	-0.42956	0.0454044	-0.695152	0.12988	-0.104661	-0.176548	0.0267999	0.0282993	1.89895	-0.50024	0.816079	1.88688	1.35435	2.16811	-0.702987	1.04278	1.8302	1.1828
2.12	-0.213798	-0.0648499	-0.145035	-0.144667	1.08194	-0.595053	0.215232	0.00798635	-0.33533	-0.0032749	-0.790994	0.230558	-0.104652	0.269427	-0.237493	-0.46516	0.0172679	-0.714024	0.138611	-0.104652	-0.168649	0.026392	0.0275466	1.85834	-0.510457	0.829661	1.8888	1.36159	2.13344	-0.715881	1.04062	1.84666	1.19207
2.13	-0.204227	-0.0650522	-0.143134	-0.142555	1.10066	-0.594724	0.192757	0.0075092	-0.333766	0.00327078	-0.808791	0.23064	-0.104643	0.2471	-0.234741	-0.489023	0.00901423	-0.724088	0.136933	-0.104644	-0.162635	0.0270591	0.0264114	1.81535	-0.523395	0.838316	1.8933	1.37127	2.09438	-0.728633	1.03135	1.86493	1.20526
2.14	-0.194852	-0.0663769	-0.139899	-0.141097	1.11856	-0.594694	0.174146	0.00810184	-0.326096	0.0137277	-0.8171	0.226346	-0.104635	0.231987	-0.233529	-0.502857	0.0155171	-0.728323	0.129035	-0.104635	-0.159663	0.0294382	0.0255859	1.77019	-0.538573	0.841975	1.89971	1.38325	2.05045	-0.740653	1.01522	1.88387	1.22162
2.15	-0.184641	-0.0692391	-0.135492	-0.140198	1.13574	-0.594951	0.157361	0.0102567	-0.31714	0.0240336	-0.817901	0.219977	-0.104626	0.220654	-0.234111	-0.509534	0.030597	-0.728961	0.119257	-0.104627	-0.160607	0.0339401	0.0255264	1.72308	-0.555287	0.840779	1.90711	1.39709	2.00147	-0.751507	0.993007	1.90236	1.24001
2.16	-0.173106	-0.0736851	-0.129995	-0.139773	1.15218	-0.595454	0.141166	0.0140193	-0.311545	0.0315313	-0.813026	0.213012	-0.104618	0.21035	-0.23617	-0.5123	0.0481518	-0.727427	0.111188	-0.104618	-0.165713	0.0406599	0.0263202	1.67431	-0.572615	0.835056	1.91452	1.41206	1.94772	-0.761073	0.965989	1.91962	1.25912
2.17	-0.16041	-0.0794366	-0.123455	-0.139766	1.16786	-0.596183	0.125342	0.0190031	-0.3127	0.0351317	-0.804304	0.206191	-0.104609	0.199505	-0.239	-0.513968	0.0631978	-0.724529	0.107159	-0.10461	-0.174473	0.0493567	0.0277001	1.62431	-0.589506	0.825307	1.92106	1.42747	1.88994	-0.769578	0.935782	1.93532	1.27777
2.18	-0.147242	-0.0859346	-0.115959	-0.140136	1.18265	-0.597107	0.110529	0.0245297	-0.321983	0.0350507	-0.793643	0.199844	-0.104601	0.187831	-0.24177	-0.516301	0.0725803	-0.720741	0.108147	-0.104601	-0.185755	0.0595382	0.0291772	1.57365	-0.604926	0.812193	1.92607	1.44251	1.82927	-0.777513	0.9041	1.94951	1.29501
2.19	-0.134584	-0.0924722	-0.107714	-0.140838	1.19645	-0.598185	0.097797	0.0298145	-0.33854	0.0322657	-0.782965	0.194188	-0.104592	0.176064	-0.243755	-0.519751	0.0752269	-0.716452	0.113952	-0.104593	-0.198101	0.0705494	0.030233	1.52306	-0.618006	0.796513	1.92921	1.45623	1.76703	-0.785458	0.872504	1.96252	1.31008
2.2	-0.123405	-0.0983666	-0.0990861	-0.141832	1.20913	-0.59936	0.0881637	0.0341376	-0.359679	0.0279815	-0.773991	0.189453	-0.104584	0.165479	-0.244485	-0.523621	0.0719331	-0.712094	0.123538	-0.104584	-0.210055	0.0816608	0.0305008	1.4733	-0.628122	0.779178	1.93037	1.46755	1.70445	-0.793907	0.842178	1.97469	1.32238
2.21	-0.114419	-0.103107	-0.0905881	-0.143082	1.22059	-0.600556	0.0821833	0.0369752	-0.381779	0.023292	-0.767955	0.18594	-0.104576	0.157298	-0.243811	-0.526571	0.0647741	-0.708136	0.13548	-0.104576	-0.220498	0.0921776	0.0298848	1.42509	-0.634927	0.761143	1.92952	1.47572	1.64248	-0.803116	0.813798	1.98622	1.33161
